<svg width="112" height="40" viewBox="0 0 112 40" fill="none" xmlns="http://www.w3.org/2000/svg">
<path d="M65.5363 2.8348C65.8086 2.82942 66.1049 2.61437 66.1941 2.357L66.9462 0.193026C67.0355 -0.0643421 67.182 -0.0643421 67.2717 0.193026L68.0238 2.357C68.113 2.61437 68.4092 2.82942 68.6816 2.8348L70.9718 2.88174C71.2445 2.88712 71.2895 3.02639 71.0726 3.19066L69.2471 4.57483C69.0298 4.73949 68.9167 5.08726 68.9955 5.34848L69.6592 7.54092C69.7376 7.80175 69.6195 7.88754 69.396 7.7325L67.5156 6.42373C67.2921 6.26792 66.9262 6.26792 66.7019 6.42373L64.8222 7.7325C64.598 7.88754 64.4795 7.80175 64.5587 7.54092L65.222 5.34848C65.3008 5.08726 65.1881 4.73949 64.9707 4.57483L63.1453 3.19066C62.928 3.02639 62.9733 2.88712 63.2457 2.88174L65.5363 2.8348Z" fill="#D34508"/>
<path d="M63.6692 19.0548C63.4784 19.4003 63.802 19.5745 63.957 19.7161C64.0859 19.8346 64.2771 19.9435 64.3021 20.1027C64.3255 20.2528 64.1532 20.4563 64.0878 20.4736C63.7773 20.5552 63.7781 20.7556 63.8627 20.9679C64.099 21.5639 64.2709 21.8512 64.4606 22.4602C64.7491 22.7076 64.778 23.3978 64.8287 23.936C64.6452 24.6253 64.7668 24.7719 65.4466 25.017C65.4716 25.0258 65.4974 25.0347 65.5231 25.0424C65.9517 25.1709 66.2614 25.2236 66.3941 25.7433C66.4114 25.8099 66.6184 25.9395 66.6861 25.9753C67.1197 26.205 67.3824 26.4162 67.6098 26.8466C68.2938 27.3306 68.4911 27.7157 68.4365 28.6517C68.842 28.9852 68.4961 29.3953 68.7589 29.4334C69.8241 29.5881 71.3514 29.852 72.4175 30.002C72.8472 30.0628 72.8983 29.9508 72.791 29.5257C72.7387 29.318 72.7498 29.1399 72.811 28.931C72.8679 28.7344 73.1134 28.5236 73.1453 28.3143C73.1949 27.9869 73.6116 27.7438 73.8232 27.4352C73.7882 27.069 73.602 26.862 73.4896 26.4827C73.4304 26.2854 73.4015 25.9749 73.2765 25.7733C71.6377 23.1377 69.9038 20.2509 68.2234 17.6398C68.0603 17.3863 68.036 17.1732 68.1234 16.8908C68.5604 15.4747 69.5137 12.3844 69.5637 12.2036C67.7498 11.6215 65.717 10.9386 63.9693 10.3774C63.9262 10.3654 63.8966 10.3866 63.882 10.4228C63.8627 10.4716 63.822 10.6282 63.8289 10.6786C63.9289 11.4772 63.3957 12.0778 62.9071 12.6325C62.6509 12.9245 62.6409 13.0538 62.8313 13.425C63.0487 13.8474 63.1718 14.4876 62.9945 14.9958C62.8194 15.4974 62.7636 16.203 63.198 16.6331C63.423 16.8554 63.3822 17.2109 63.4022 17.4998C63.4249 17.8318 63.73 18.2827 63.8639 18.1723C63.9974 18.0615 64.2517 17.5356 64.294 17.6398C64.3367 17.7433 64.1186 18.1188 64.1251 18.3716C64.1343 18.7159 64.3059 19.0294 64.207 19.0017C64.0362 18.9525 63.8239 18.3796 63.7085 18.4762C63.4877 18.6589 63.7477 18.9117 63.6692 19.0548Z" fill="#FFC629"/>
<path d="M9.34413 15.9367V17.3216H6.1326V15.8632C6.1326 14.5802 5.61363 13.8139 4.74535 13.8139C3.62701 13.8139 3.21114 14.3228 3.21114 15.6916V24.6695C3.21114 26.0379 3.62701 26.5469 4.74535 26.5469C5.7175 26.5469 6.1326 26.0364 6.1326 24.8411V22.6221H9.34413V24.7426C9.34413 28.1511 6.96857 29.3656 4.74535 29.3656C2.45135 29.3656 0 28.1511 0 24.7426V15.6177C0 12.2093 2.45135 10.9951 4.74535 10.9951C7.53909 10.9951 9.34413 12.9344 9.34413 15.9367ZM19.1484 11.3102L22.4295 29.1206H19.3096L18.8337 25.7132H15.5087L15.0424 29.1206H11.9232L11.9421 29.0198L15.2167 11.2406H19.1357L19.1484 11.3102ZM17.1764 15.2454L15.9738 22.8952H18.3836L17.1764 15.2454ZM28.9064 26.3014H33.6895V29.1206H25.6953V11.2406H28.9064V26.3014ZM46.5741 23.9089C46.5741 27.2697 44.8541 29.1206 41.731 29.1206H36.8383V11.2406H41.4363C44.6178 11.2406 46.2309 12.8456 46.2309 16.0105C46.2309 17.3678 45.7046 19.0259 44.2424 19.7164C45.832 20.4897 46.5741 21.8269 46.5741 23.9089ZM40.0495 26.4484H41.2401C42.7282 26.4484 43.3629 25.6597 43.3629 23.8108C43.3629 21.9619 42.6401 21.1733 40.9458 21.1733H40.0495V26.4484ZM43.0194 16.3295C43.0194 14.7025 42.3969 13.9123 41.1178 13.9123H40.0495V18.5015H41.0685C42.2719 18.5015 43.0194 17.669 43.0194 16.3295ZM57.3124 21.0598L59.9007 29.1206H56.6307L56.6122 29.0598L54.474 21.7938C54.1239 21.8319 53.583 21.8569 53.0502 21.8596V29.1206H49.8391V11.2406H54.1916C57.8129 11.2406 59.4279 12.8783 59.4279 16.5503C59.4279 19.4202 58.2942 20.5874 57.3124 21.0598ZM53.0502 19.1878H54.0451C55.6889 19.1878 56.216 18.5469 56.216 16.5503C56.216 14.5533 55.6889 13.9123 54.0451 13.9123H53.0502V19.1878ZM81.2065 19.973H86.0992V29.1206H84.4861L83.9537 27.8703C83.1177 28.8409 82.3614 29.3656 80.9118 29.3656C78.3866 29.3656 76.7547 27.551 76.7547 24.7426V15.6177C76.7547 12.8094 78.5405 10.9951 81.3046 10.9951C84.1272 10.9951 85.9511 12.9344 85.9511 15.9367V17.15H82.8877V17.065C82.8877 14.3321 82.306 13.8139 81.2311 13.8139C80.3913 13.8139 79.9658 14.4371 79.9658 15.667V24.7672C79.9658 25.981 80.3913 26.5469 81.3046 26.5469C82.4733 26.5469 82.8877 25.9271 82.8877 24.1786V22.5467H81.2065V19.973V19.973ZM96.0877 11.2406H99.2984V29.1206H96.0877V21.271H93.0189V29.1206H89.8081V11.2406H93.0189V18.4523H96.0877V11.2406ZM111.594 11.2406V14.0597H108.651V29.1206H105.44V14.0597H102.496V11.2406H111.594Z" fill="white"/>
<path d="M43.0953 39.999C44.0539 39.999 44.6906 39.4405 44.7926 38.4991H44.1328C44.0539 39.0515 43.7096 39.4012 43.1291 39.4012C42.3732 39.4012 41.9392 38.8034 41.9392 37.8782C41.9392 36.9706 42.3732 36.384 43.1291 36.384C43.6477 36.384 44.0032 36.6663 44.1047 37.1453H44.7699C44.6741 36.3109 44.0086 35.7861 43.0953 35.7861C42.0069 35.7861 41.251 36.6156 41.251 37.8782C41.251 39.1415 41.9958 39.999 43.0953 39.999ZM47.5844 39.999C48.6839 39.999 49.496 39.1473 49.496 37.8732C49.496 36.6156 48.6839 35.7861 47.5844 35.7861C46.4903 35.7861 45.6897 36.6156 45.6897 37.8732C45.6897 39.1473 46.4903 39.999 47.5844 39.999ZM47.5898 39.4012C46.8569 39.4012 46.3776 38.7976 46.3776 37.8732C46.3776 36.9764 46.8569 36.384 47.5898 36.384C48.3119 36.384 48.8081 36.9706 48.8081 37.8732C48.8081 38.8034 48.3176 39.4012 47.5898 39.4012ZM51.3014 39.2827V35.8712H50.619V39.8859H53.3254V39.2827H51.3014ZM55.0177 39.2827V35.8712H54.3356V39.8859H57.0424V39.2827H55.0177ZM58.7347 39.305V38.104H60.7363V37.5173H58.7347V36.4517H60.9337V35.8712H58.0523V39.8859H60.9845V39.305H58.7347V39.305ZM63.9456 37.7262V38.3071H65.0339V38.3748C64.9323 39.023 64.5095 39.4012 63.9006 39.4012C63.1223 39.4012 62.671 38.7865 62.671 37.8782C62.671 36.9706 63.1165 36.3782 63.9229 36.3782C64.4472 36.3782 64.8365 36.6321 64.9323 37.1284L65.5975 37.0834C65.4679 36.277 64.8423 35.7861 63.889 35.7861C62.7445 35.7861 61.9832 36.5986 61.9832 37.8732C61.9832 39.1812 62.7895 39.976 63.8498 39.976C64.408 39.976 64.8196 39.7505 65.0562 39.3897L65.1862 39.8859H65.6483V37.7262H63.9456ZM67.6003 39.305V38.104H69.6023V37.5173H67.6003V36.4517H69.7993V35.8712H66.9178V39.8859H69.85V39.305H67.6003V39.305Z" fill="#D34508"/>
</svg>
